Land_normalized_Motion_pl03
version=1
nRows=8
nColumns=43
inDegrees=yes
endheader
time		pelvis_tilt		pelvis_list		pelvis_rotation		pelvis_tx		pelvis_ty		pelvis_tz		hip_flexion_r		hip_adduction_r		hip_rotation_r		knee_angle_r		ankle_angle_r		subtalar_angle_r		mtp_angle_r		hip_flexion_l		hip_adduction_l		hip_rotation_l		knee_angle_l		ankle_angle_l		subtalar_angle_l		mtp_angle_l		lumbar_extension		lumbar_bending		lumbar_rotation		neck_flexion		neck_lateral_bending		neck_rotation		arm_flex_r		arm_add_r		arm_rot_r		elbow_flex_r		pro_sup_r		wrist_flex_r		wrist_dev_r		hand_finger_flex_r		arm_flex_l		arm_add_l		arm_rot_l		elbow_flex_l		pro_sup_l		wrist_flex_l		wrist_dev_l		hand_finger_flex_l		
1.142500		-1.762581		23.092315		91.305944		0.024429		0.680497		0.542871		40.049097		-5.602661		-3.081189		-96.790116		19.161353		-5.583721		15.364651		38.173330		-1.550790		-4.963027		-93.772928		19.691449		-21.586738		15.802633		-65.916515		-3.171230		-4.596522		-3.619710		2.371122		-0.647428		-19.514718		-24.537117		-3.627710		32.739048		100.671901		-11.792201		10.260825		57.592765		-23.326260		-26.833596		-18.684792		48.493580		122.390026		-33.116687		-3.893980		90.000210		
1.145152		-1.814894		22.796564		91.132229		0.024594		0.672892		0.542142		41.626112		-5.459992		-2.565285		-98.539893		18.677981		-5.425940		16.048352		39.531835		-1.592710		-5.050010		-95.450896		19.526294		-21.775138		15.598217		-66.261639		-3.363508		-4.612037		-2.732265		2.485159		-0.819088		-17.185989		-24.687090		-3.628693		33.204889		101.913799		-12.561706		10.152069		57.706616		-21.095073		-26.727057		-19.663704		49.078215		122.913364		-32.636318		-3.446931		90.000210		
1.147803		-1.843330		22.961679		91.165779		0.024437		0.666722		0.541508		42.520802		-5.428621		-2.212387		-100.084898		18.198453		-5.147290		16.367767		40.278717		-1.578207		-5.002139		-96.925926		19.393803		-21.727350		15.605423		-67.148674		-3.311222		-4.590201		-1.642524		2.475999		-0.940000		-14.829505		-24.872409		-3.629988		33.654517		102.353007		-12.860910		10.084133		57.724690		-18.681399		-26.770133		-20.096151		49.567334		123.032526		-32.477203		-3.283219		90.000210		
1.150455		-1.990987		22.656820		91.118236		0.024457		0.659461		0.540676		44.100116		-5.418869		-1.627846		-101.756011		17.450969		-4.750152		17.849347		41.609853		-1.514050		-5.076515		-98.490329		19.096654		-21.792697		15.699467		-67.448815		-3.451091		-4.760450		-0.828234		2.475460		-1.003347		-12.446781		-24.919553		-3.814098		34.097408		103.563304		-13.605112		9.854757		58.086616		-16.475287		-26.648811		-21.074937		50.267467		123.931664		-31.621445		-2.749376		90.000210		
1.153106		-1.966463		22.732038		91.141996		0.024384		0.653274		0.539859		45.097466		-5.346432		-1.266406		-103.252893		16.854270		-4.223003		18.213647		42.466218		-1.550103		-4.963155		-99.949923		18.909101		-21.682953		15.797599		-68.162101		-3.390069		-4.748766		0.084471		2.530838		-1.321953		-10.156711		-25.097723		-3.727390		34.727238		103.983921		-14.081445		9.761118		57.975549		-14.180727		-26.615449		-21.586031		50.895944		123.890520		-31.601599		-2.612246		90.000210		
1.155758		-1.995468		22.608552		91.208313		0.024220		0.646756		0.538943		46.341672		-5.313612		-0.825445		-104.761085		16.262325		-3.617643		18.781194		43.553831		-1.526139		-4.877630		-101.389962		18.658693		-21.566565		15.975017		-68.609732		-3.334223		-4.756258		0.826241		2.572294		-1.448548		-7.868195		-25.224737		-3.641771		35.262585		104.490226		-14.707342		9.651048		57.875319		-11.892187		-26.554877		-22.029225		51.575100		123.991385		-31.502956		-2.426510		90.000210		
1.158409		-2.049551		22.584958		91.317269		0.024056		0.640602		0.537932		47.429785		-5.336709		-0.421288		-106.196242		15.541010		-3.124599		20.190416		44.500299		-1.468408		-4.782917		-102.765269		18.304754		-21.540553		16.574647		-69.128077		-3.263252		-4.815348		1.513930		2.676696		-1.493174		-5.543834		-25.337601		-3.528850		35.747479		104.780370		-15.299761		9.417605		58.160378		-9.570067		-26.541709		-22.357150		52.170477		124.344998		-31.186095		-2.153820		90.000210		
1.161061		-2.102793		22.433681		91.419893		0.023872		0.634151		0.536822		48.693714		-5.353933		0.035887		-107.630377		14.640120		-2.490964		22.450350		45.622065		-1.401063		-4.670318		-104.166461		17.827933		-21.553441		17.551612		-69.457897		-3.196746		-4.892947		2.056938		2.715007		-1.592533		-3.254635		-25.451480		-3.334329		36.254963		105.117031		-16.129204		9.083878		58.672901		-7.367374		-26.476963		-22.754688		52.912554		124.909191		-30.667751		-1.770320		90.000210		
